<svg width="166" height="54" viewBox="0 0 166 54" fill="none" xmlns="http://www.w3.org/2000/svg">
<path
    d="M145.28 0.85037C145.66 0.566781 146.222 0.147172 146.607 0.0309945C147.042 -0.100351 147.178 0.197751 147.406 0.698209C147.432 0.754942 147.459 0.814275 147.488 0.875877C148.878 3.84923 147.996 7.93786 145.557 10.337C145.122 10.765 144.085 11.467 143.761 11.2156C143.58 11.0751 143.71 10.9584 143.923 10.7665C144.069 10.6353 144.254 10.4689 144.405 10.2358C146.667 6.7496 145.76 3.84923 144.845 2.09214C144.656 1.72783 144.646 1.301 145.015 1.04474C145.084 0.996437 145.175 0.928576 145.28 0.85037Z"
    fill="#4D5B5C"
  />
<path
    d="M154.873 30.4759C152.06 30.4759 148.886 29.1117 148.734 28.415C148.615 25.2179 148.124 23.5491 148.124 23.5491C147.972 22.7752 147.936 22.3404 148.31 22.2782C148.699 22.2134 148.791 22.6098 148.963 23.3531L148.988 23.4605C149.445 25.24 151.756 29.2935 157.002 29.2935C160.613 29.2935 163.207 27.2058 163.168 23.1435C163.137 19.8384 160.091 18.8496 156.818 17.7873C152.998 16.5472 148.87 15.207 148.87 9.96535C148.87 5.05192 152.597 2.35888 156.968 2.39621C160.008 2.42247 161.246 3.06426 161.892 3.39956C162.082 3.49773 162.22 3.56963 162.339 3.59211C162.767 3.67351 163.021 3.45585 163.238 3.26972C163.382 3.14669 163.51 3.03744 163.661 3.03744C163.889 3.03744 164.079 3.15341 164.117 3.5791L164.66 8.98555L164.663 9.01102L164.666 9.03472C164.668 9.05301 164.671 9.07115 164.674 9.08908C164.711 9.35438 164.742 9.57304 164.405 9.57304C164.058 9.57304 163.886 9.04125 163.764 8.66437C163.739 8.58711 163.716 8.51636 163.694 8.45803C162.708 5.82835 160.008 3.68065 156.663 3.68065C153.66 3.68065 150.903 5.18938 150.903 8.74909C150.903 12.073 153.959 13.0929 157.279 14.2006C161.224 15.5169 165.54 16.9572 165.54 22.5353C165.54 25.7853 163.501 30.4759 154.873 30.4759Z"
    fill="#4D5B5C"
  />
<path
    d="M120.187 25.7921C119.814 29.2005 118.985 29.3981 117.962 29.6421C117.869 29.6641 117.775 29.6866 117.679 29.7119C116.639 29.9865 117.036 30.6241 117.713 30.5225C117.966 30.4852 119.828 30.2864 121.102 30.2864C122.152 30.2864 123.144 30.3447 123.961 30.3928C124.532 30.4264 125.018 30.4549 125.377 30.4549C125.741 30.4549 126.219 29.9483 125.337 29.7119C125.2 29.6751 125.037 29.6483 124.856 29.6185C123.686 29.4263 121.782 29.1134 121.576 25.2516C121.403 21.9872 121.692 10.8306 121.692 10.8306C121.692 10.0511 121.801 9.93368 121.947 9.93368C122.148 9.93368 122.355 10.208 122.554 10.4715C122.607 10.5417 122.66 10.6115 122.711 10.6747L138.282 30.419C139.924 32.3345 140.026 31.76 139.992 29.8341C139.883 23.6175 140.077 6.46392 140.077 6.46392C140.106 4.28438 141.39 4.08323 142.296 3.94127C142.794 3.86336 143.177 3.80329 143.177 3.4439C143.177 3.20998 143.032 3.09259 142.813 3.09259C142.414 3.09259 141.673 3.14903 140.868 3.21037C139.91 3.28336 138.861 3.36328 138.188 3.36328C137.597 3.36328 137.128 3.31816 136.666 3.27377C136.219 3.23078 135.779 3.18848 135.242 3.18848C135.024 3.18848 134.837 3.30558 134.842 3.5791C134.847 3.9143 135.218 3.97758 135.726 4.06428C136.876 4.26063 138.731 4.57712 138.637 8.44474L138.674 24.5962C138.674 24.9082 138.654 25.5217 138.128 24.5962L121.83 4.11964C121.785 4.06228 121.734 3.98937 121.679 3.90997C121.471 3.61188 121.2 3.22242 120.884 3.22242C120.611 3.22242 120.024 3.25763 119.436 3.29284C118.849 3.32806 118.261 3.36328 117.988 3.36328C117.696 3.36328 117.414 3.32433 117.132 3.28537C116.85 3.2464 116.568 3.20743 116.277 3.20743C116.095 3.20743 115.697 3.36583 115.731 3.59777C115.795 4.02391 116.253 4.15948 116.857 4.33784C118.188 4.73151 120.225 5.33361 120.272 9.72889C120.272 9.72889 120.363 24.1872 120.187 25.7921Z"
    fill="#4D5B5C"
  />
<path
    fill-rule="evenodd"
    clip-rule="evenodd"
    d="M117.561 16.6101C117.561 25.5155 111.544 31.2531 102.888 31.2531C94.4645 31.2531 89.3021 25.1591 89.3021 16.8081C89.3021 8.5757 95.5908 2.59931 103.548 2.59931C111.467 2.59931 117.561 8.4173 117.561 16.6101ZM114.727 18.1141C114.727 10.9107 110.171 4.16659 102.601 4.16659C96.0795 4.16659 92.1356 9.40729 92.1356 15.6603C92.1356 22.9822 96.6099 29.9144 104.296 29.9144C109.963 29.9144 114.727 25.436 114.727 18.1141Z"
    fill="#4D5B5C"
  />
<path
    fill-rule="evenodd"
    clip-rule="evenodd"
    d="M79.8261 16.4334C82.2861 15.3452 84.5923 12.8951 84.5923 9.86381C84.5923 2.62007 77.0218 2.74682 75.997 2.76398C75.9609 2.76459 75.9326 2.76506 75.9134 2.76506C75.0244 2.76506 74.0077 2.84788 72.9633 2.93296C71.8602 3.02283 70.7261 3.11523 69.6785 3.11523C68.5543 3.11523 67.8349 3.0342 67.2987 2.97381C66.98 2.93792 66.7261 2.90931 66.4902 2.90931C66.0684 2.90931 65.7868 3.14266 65.7868 3.3763C65.7868 3.8525 66.315 3.90202 66.9858 3.9649C68.1762 4.0765 69.8157 4.2302 69.7494 6.88481V26.6656C69.7494 28.6454 68.8293 29.1879 68.0899 29.4322C68.0035 29.4405 67.8978 29.4547 67.7691 29.4754C66.9091 29.6137 65.2652 28.9985 63.5844 26.2186L57.1067 16.6195C57.0052 16.5519 57.1238 16.383 57.1238 16.383C59.6359 15.2949 62.2629 12.7605 62.2629 9.72888C62.2629 2.5403 54.2631 2.73714 53.0915 2.76596C53.0406 2.76722 53.0026 2.76815 52.9787 2.76815C52.0711 2.76815 51.1042 2.85023 50.1108 2.93455C49.0615 3.02363 47.9827 3.11521 46.9129 3.11521C45.7649 3.11521 45.1052 3.03698 44.6133 2.97866C44.321 2.944 44.0881 2.91637 43.8471 2.91637C43.4168 2.91637 43.1278 3.14944 43.1292 3.38307C43.1313 3.75105 43.5808 3.79577 44.1721 3.85461C45.3286 3.96967 47.0277 4.13873 46.9852 6.88479V26.6658C46.9949 28.9098 45.8389 29.4457 44.9315 29.5724C44.3162 29.4492 43.4425 29.1607 42.8478 28.1106C42.1131 26.8136 41.582 25.3533 41.0825 23.9797C41.0382 23.858 40.9942 23.7368 40.9503 23.6167L33.2213 3.06119C33.203 3.00721 33.1806 2.92925 33.1541 2.83696C33.0239 2.38378 32.7944 1.58526 32.4659 1.58526C32.115 1.58526 31.9669 1.94488 31.0169 4.25264C30.7017 5.0183 30.2981 5.9986 29.7697 7.25109L21.1776 27.6007C20.6097 28.9826 19.6758 29.2503 19.0301 29.4353C18.6129 29.5549 18.316 29.64 18.316 29.969C18.316 30.2083 18.6606 30.4733 18.8767 30.4733C19.3397 30.4733 19.837 30.4109 20.3389 30.3478C20.8504 30.2836 21.3668 30.2187 21.8569 30.2187C22.8635 30.2187 23.871 30.2575 25.1944 30.4759C26.0924 30.6241 26.3006 29.8606 25.5163 29.6779C24.4998 29.4415 22.9752 28.9804 23.1908 27.2417C23.4832 24.8796 25.5671 20.7443 25.5671 20.7443C25.9265 19.9068 26.7672 19.6293 27.4502 19.6293H35.3593C36.3662 19.6293 36.5642 20.0193 36.9241 20.9375L38.0745 24.209C38.2202 24.6456 38.3571 25.11 38.4903 25.5621C38.6859 26.2255 38.8738 26.8627 39.0698 27.3467C39.7812 29.1037 37.9517 29.7455 37.2401 29.6779C36.6637 29.6233 36.7996 30.658 37.8227 30.4733C38.7782 30.3013 39.9962 30.1851 40.967 30.1851C41.7042 30.1851 42.3833 30.2571 43.0623 30.3292C43.5888 30.3851 44.1153 30.4409 44.6689 30.4632C44.6911 30.4702 44.7097 30.4739 44.7238 30.4739C44.7942 30.4739 44.8638 30.4729 44.9327 30.4711C45.007 30.4726 45.0818 30.4733 45.1572 30.4733C45.1809 30.4733 45.2089 30.4677 45.2398 30.4575C45.7208 30.4278 46.172 30.3617 46.6233 30.2957C47.2322 30.2066 47.8413 30.1175 48.5231 30.1175C51.5021 30.1175 53.5071 30.4286 53.8257 30.4829C54.6561 30.6243 54.809 30.0015 54.0123 29.8137C53.8321 29.7711 53.6207 29.7351 53.3904 29.6959C51.9746 29.4551 49.8422 29.0922 49.8275 26.3199L49.8207 18.505C49.8207 18.4548 49.8172 18.3995 49.8134 18.3412C49.7879 17.9474 49.7536 17.4171 50.7539 17.4171C51.094 17.4171 51.4031 17.4157 51.6848 17.4144C53.35 17.4066 54.0582 17.4034 54.5509 17.7267C54.9155 17.966 55.1621 18.3842 55.5911 19.112L55.5919 19.1134C55.6441 19.2019 55.699 19.2951 55.7572 19.3931L60.2106 26.2579C61.5743 28.4727 62.9743 30.4544 65.5945 30.4544C65.615 30.4544 65.6441 30.4545 65.6806 30.4548C65.9927 30.4568 66.8481 30.4625 67.5096 30.3826C68.0513 30.3702 68.6132 30.3367 69.1751 30.3032C69.8832 30.261 70.5917 30.2188 71.2595 30.2188C74.1761 30.2188 75.9647 30.3647 76.2696 30.449C76.7822 30.5904 77.0193 29.9483 76.4432 29.7455C76.3103 29.6988 76.0896 29.6757 75.8188 29.6474C74.6566 29.5259 72.5704 29.3078 72.5262 26.7049V18.505C72.5262 18.4546 72.5227 18.3994 72.519 18.3413C72.494 17.9506 72.4609 17.4321 73.4401 17.4168C74.2401 17.4041 74.856 17.3805 75.3372 17.362C76.9869 17.2987 77.0532 17.2962 77.5253 18.0026C77.5253 18.0026 84.2854 26.2761 87.9616 29.728C91.1752 32.7455 95.1427 34.8448 97.7053 34.9701C101.161 35.139 103.025 34.5577 103.025 34.0916C103.025 33.8399 102.806 33.8471 102.324 33.863C101.02 33.906 97.7966 34.0121 91.8097 29.2257C86.8614 25.2702 80.772 17.8558 79.8261 16.6362C79.7706 16.5649 79.8016 16.4963 79.8183 16.4594C79.8242 16.4463 79.8283 16.4372 79.8261 16.4334ZM72.5296 5.43745C72.5296 4.06051 73.217 4.06885 74.2917 4.08189C74.3999 4.0832 74.512 4.08456 74.6277 4.08456C78.0724 4.08456 81.543 5.79865 81.543 10.5395C81.543 15.3591 77.8682 16.0951 76.3567 16.0951C76.0737 16.0951 75.7752 16.1008 75.4748 16.1065C74.0223 16.1343 72.5262 16.1629 72.5262 15.5511L72.5296 5.43745ZM51.584 4.0637C50.5101 4.09776 49.8922 4.11735 49.8922 5.48863L49.8953 15.5749C49.8953 16.1739 51.5748 16.1344 53.1094 16.0983C53.4653 16.0899 53.8133 16.0818 54.1308 16.0818C55.6741 16.0818 59.0777 15.2239 59.0777 10.4049C59.0777 5.664 55.6894 3.88316 51.9378 4.05089C51.8149 4.05638 51.6969 4.06012 51.584 4.0637ZM31.2798 7.25109C31.4956 6.77194 31.6755 6.77194 31.855 7.25109L35.5961 17.4117C35.7754 17.9305 35.8117 18.2102 35.0206 18.2102H27.4984C27.0309 18.2102 26.7794 18.0498 27.0309 17.4918L31.2798 7.25109Z"
    fill="#4D5B5C"
  />
<path
    fill-rule="evenodd"
    clip-rule="evenodd"
    d="M1.51127 29.4959C1.93038 29.3787 3.22718 29.0158 3.22718 25.9901V6.88395C3.22718 4.43446 1.87401 4.10545 1.00301 3.89367C0.824483 3.85027 0.666207 3.81178 0.543995 3.76098C-0.269184 3.42297 -0.0468136 2.91609 0.40842 2.91609C0.722962 2.91609 1.27236 2.97992 1.91597 3.0547C2.826 3.16043 3.92438 3.28805 4.81355 3.28805C5.44233 3.28805 5.91607 3.23869 6.47109 3.18087C7.256 3.0991 8.20348 3.00039 9.98194 3.00039C16.661 3.00039 18.4856 6.75441 18.4856 9.62734C18.4856 12.7673 16.1439 14.347 15.1726 15.0023C14.9184 15.1737 14.7581 15.2819 14.7581 15.3381C14.7581 15.4809 15.1171 15.6376 15.6589 15.8742C17.3287 16.6033 20.7347 18.0904 20.7221 22.2624C20.7133 25.171 19.1431 30.7465 11.7427 30.7465C11.0498 30.7465 9.88382 30.6596 8.7345 30.5739C7.61761 30.4906 6.51648 30.4085 5.88058 30.4085C5.0077 30.4085 4.29684 30.4301 3.58598 30.4517C2.87512 30.4732 2.16426 30.4948 1.29137 30.4948C1.27262 30.4948 1.24677 30.4954 1.21538 30.4961C0.929779 30.5024 0.185714 30.5189 0.154281 30.2057C0.107349 29.7379 0.447587 29.6894 0.88813 29.6266C1.08393 29.5987 1.29953 29.568 1.50977 29.4963L1.51127 29.4959ZM5.95212 6.73245C5.95306 6.8782 5.95404 7.0321 5.95404 7.19452V13.602C5.95404 13.6256 5.95402 13.6489 5.95399 13.6717C5.95278 14.8527 5.95258 15.0476 9.30292 15.1014C14.3008 15.1823 15.8086 13.2015 15.8594 10.9245C15.953 6.73206 12.7253 4.18752 8.15505 4.28199C5.9367 4.32792 5.94009 4.85701 5.95212 6.73245ZM5.95283 16.8994C5.95344 16.9201 5.95404 16.9404 5.95404 16.96V25.8348C5.95404 26.0068 5.95267 26.1724 5.95135 26.3317C5.93124 28.7634 5.92319 29.7369 10.9803 29.6782C16.8082 29.6106 17.5666 26.0291 17.5666 23.6993C17.5666 21.2138 17.4149 16.0673 8.68658 16.0673C5.92819 16.0673 5.94252 16.5511 5.95283 16.8994Z"
    fill="#4D5B5C"
  />
<path
    d="M4.875 51H6.292C6.188 50.233 6.162 49.765 6.162 49.245V46.814C6.162 46.489 6.149 46.125 6.123 45.839C6.006 44.669 5.304 43.915 3.523 43.915C1.95 43.915 0.819 44.773 0.728 46.281H2.158C2.236 45.423 2.665 44.955 3.497 44.955C4.316 44.955 4.667 45.345 4.706 45.904C4.732 46.164 4.732 46.398 4.732 46.658V46.827H4.29C1.677 46.827 0.455 47.659 0.455 49.193C0.455 50.48 1.456 51.182 2.678 51.182C3.328 51.182 3.926 51.065 4.394 50.74L4.745 49.999L4.875 51ZM3.198 50.142C2.444 50.142 1.963 49.804 1.963 49.076C1.963 48.023 3.055 47.646 4.732 47.776V48.413C4.732 49.531 4.095 50.142 3.198 50.142Z"
    fill="#0C2A31"
  />
<path
    d="M15.0407 42.082C14.5857 42.03 14.3777 42.03 13.8967 42.03H10.9977V51H13.8447C14.3257 51 14.5337 51 14.9887 50.948C17.0687 50.688 18.6547 49.089 18.6547 46.411C18.6547 43.694 17.1207 42.329 15.0407 42.082ZM14.7417 49.804C14.4557 49.856 14.1567 49.856 13.7147 49.856H12.4277V43.161H13.7667C14.1957 43.161 14.5077 43.174 14.7937 43.226C16.2237 43.434 17.1207 44.526 17.1207 46.411C17.1207 48.4 16.1847 49.596 14.7417 49.804Z"
    fill="#0C2A31"
  />
<path
    d="M22.9804 43.915C20.6534 43.915 19.4834 45.527 19.4834 47.542C19.4834 49.557 20.6534 51.182 22.9804 51.182C25.2944 51.182 26.4774 49.557 26.4774 47.542C26.4774 45.527 25.2944 43.915 22.9804 43.915ZM22.9804 50.142C21.7194 50.142 20.9914 49.102 20.9914 47.542C20.9914 45.982 21.7194 44.955 22.9804 44.955C24.2284 44.955 24.9564 45.982 24.9564 47.542C24.9564 49.102 24.2284 50.142 22.9804 50.142Z"
    fill="#0C2A31"
  />
<path
    d="M37.2769 44.097H35.7559L34.3389 49.739L32.9609 44.11H31.2189L29.8799 49.726L28.4629 44.097H26.8509L29.0479 51H30.6989L32.0769 45.423L33.4419 51H35.0799L37.2769 44.097Z"
    fill="#0C2A31"
  />
<path
    d="M46.6592 42.03H45.2292V47.516C45.2292 47.932 45.2292 48.244 45.2162 48.517C45.1382 49.492 44.6702 50.09 43.7212 50.09C42.7592 50.09 42.2002 49.57 42.1352 48.348L42.1092 47.854H40.6792L40.6922 48.348C40.7442 50.09 41.7322 51.182 43.5912 51.182C45.5932 51.182 46.5292 50.129 46.6202 48.608C46.6592 48.101 46.6592 47.815 46.6592 47.451V42.03Z"
    fill="#0C2A31"
  />
<path
    d="M51.2529 43.915C48.9259 43.915 47.7559 45.527 47.7559 47.542C47.7559 49.557 48.9259 51.182 51.2529 51.182C53.5669 51.182 54.7499 49.557 54.7499 47.542C54.7499 45.527 53.5669 43.915 51.2529 43.915ZM51.2529 50.142C49.9919 50.142 49.2639 49.102 49.2639 47.542C49.2639 45.982 49.9919 44.955 51.2529 44.955C52.5009 44.955 53.2289 45.982 53.2289 47.542C53.2289 49.102 52.5009 50.142 51.2529 50.142Z"
    fill="#0C2A31"
  />
<path
    d="M62.1044 45.891C61.9743 44.682 61.1293 43.915 59.6474 43.915C58.9584 43.915 58.4514 44.032 57.9053 44.448L57.4374 45.241V44.097H56.0074V51H57.4374V47.906C57.4374 45.748 58.2434 44.968 59.2313 44.968C60.2063 44.968 60.6224 45.514 60.6874 46.294C60.7134 46.645 60.7134 46.944 60.7134 47.269V51H62.1434V47.113C62.1434 46.554 62.1304 46.242 62.1044 45.891Z"
    fill="#0C2A31"
  />
<path
    d="M69.8321 47.373C69.8321 45.423 68.7531 43.915 66.7511 43.915C64.7621 43.915 63.3711 45.384 63.3711 47.568C63.3711 50.012 64.7621 51.182 66.6081 51.182C68.1161 51.182 69.4291 50.402 69.7281 48.764H68.2851C68.1421 49.635 67.4921 50.142 66.6601 50.142C65.7241 50.142 64.9701 49.596 64.8531 47.945H69.8061C69.8321 47.698 69.8321 47.503 69.8321 47.373ZM66.6991 44.955C67.7001 44.955 68.2591 45.67 68.3631 46.944H64.8661C65.0221 45.618 65.7241 44.955 66.6991 44.955Z"
    fill="#0C2A31"
  />
<path
    d="M73.4139 43.915C71.88 43.915 70.8659 44.695 70.8659 45.982C70.8659 47.191 71.8019 47.724 73.0629 48.049C74.2329 48.361 74.7009 48.686 74.7009 49.284C74.7009 49.882 74.1679 50.168 73.5049 50.168C72.7899 50.168 72.2049 49.817 72.0359 48.933H70.5929C70.7879 50.493 71.9189 51.182 73.4529 51.182C74.9609 51.182 76.1439 50.519 76.1439 49.18C76.1439 47.958 75.351 47.36 73.8429 46.97C72.8159 46.697 72.3089 46.437 72.3089 45.813C72.3089 45.293 72.6339 44.916 73.3099 44.916C74.0119 44.916 74.4409 45.345 74.5839 46.073H76.0399C75.8839 44.812 74.9999 43.915 73.4139 43.915Z"
    fill="#0C2A31"
  />
<path
    d="M84.0823 41.848C81.5603 41.848 79.7923 43.733 79.7923 46.554C79.7923 49.284 81.3653 51.182 83.9263 51.182C86.2663 51.182 87.5793 49.843 87.7613 48.088L87.7743 47.958H86.3573L86.3313 48.088C86.0843 49.297 85.3433 50.09 83.9913 50.09C82.4053 50.09 81.3393 48.712 81.3393 46.489C81.3393 44.37 82.3923 42.94 84.0563 42.94C85.4083 42.94 86.1493 43.707 86.3963 44.916L86.4223 45.046H87.8393L87.8263 44.916C87.6443 43.148 86.4223 41.848 84.0823 41.848Z"
    fill="#0C2A31"
  />
<path
    d="M92.2334 43.915C89.9064 43.915 88.7364 45.527 88.7364 47.542C88.7364 49.557 89.9064 51.182 92.2334 51.182C94.5474 51.182 95.7304 49.557 95.7304 47.542C95.7304 45.527 94.5474 43.915 92.2334 43.915ZM92.2334 50.142C90.9724 50.142 90.2444 49.102 90.2444 47.542C90.2444 45.982 90.9724 44.955 92.2334 44.955C93.4814 44.955 94.2094 45.982 94.2094 47.542C94.2094 49.102 93.4814 50.142 92.2334 50.142Z"
    fill="#0C2A31"
  />
<path
    d="M106.66 45.605C106.504 44.656 105.776 43.915 104.502 43.915C103.891 43.915 103.41 44.032 103.033 44.318L102.396 45.228C102.136 44.461 101.447 43.915 100.355 43.915C99.7308 43.915 99.2498 44.032 98.8858 44.318L98.4178 45.124V44.097H96.9878V51H98.4178V47.529C98.4178 45.657 98.9638 44.968 99.8088 44.968C100.55 44.968 100.992 45.358 101.096 46.099C101.135 46.45 101.148 46.827 101.148 47.347V51H102.565V47.529C102.565 45.657 103.124 44.968 103.956 44.968C104.697 44.968 105.152 45.358 105.243 46.099C105.282 46.45 105.295 46.827 105.295 47.347V51H106.725V46.827C106.725 46.268 106.712 45.956 106.66 45.605Z"
    fill="#0C2A31"
  />
<path
    d="M112.221 43.915C111.519 43.915 110.804 44.11 110.414 44.435L109.894 45.176V44.097H108.464V53.548H109.894V50.064L110.349 50.753C110.7 51.026 111.415 51.182 111.987 51.182C113.768 51.182 115.328 49.96 115.328 47.425C115.328 45.41 114.197 43.915 112.221 43.915ZM111.818 50.142C110.908 50.142 109.894 49.518 109.894 47.828V47.477C109.894 45.631 110.817 44.955 111.883 44.955C113.131 44.955 113.82 46.06 113.82 47.555C113.82 49.271 112.962 50.142 111.818 50.142Z"
    fill="#0C2A31"
  />
<path
    d="M120.58 51H121.997C121.893 50.233 121.867 49.765 121.867 49.245V46.814C121.867 46.489 121.854 46.125 121.828 45.839C121.711 44.669 121.009 43.915 119.228 43.915C117.655 43.915 116.524 44.773 116.433 46.281H117.863C117.941 45.423 118.37 44.955 119.202 44.955C120.021 44.955 120.372 45.345 120.411 45.904C120.437 46.164 120.437 46.398 120.437 46.658V46.827H119.995C117.382 46.827 116.16 47.659 116.16 49.193C116.16 50.48 117.161 51.182 118.383 51.182C119.033 51.182 119.631 51.065 120.099 50.74L120.45 49.999L120.58 51ZM118.903 50.142C118.149 50.142 117.668 49.804 117.668 49.076C117.668 48.023 118.76 47.646 120.437 47.776V48.413C120.437 49.531 119.8 50.142 118.903 50.142Z"
    fill="#0C2A31"
  />
<path
    d="M129.783 45.891C129.653 44.682 128.808 43.915 127.326 43.915C126.637 43.915 126.13 44.032 125.584 44.448L125.116 45.241V44.097H123.686V51H125.116V47.906C125.116 45.748 125.922 44.968 126.91 44.968C127.885 44.968 128.301 45.514 128.366 46.294C128.392 46.645 128.392 46.944 128.392 47.269V51H129.822V47.113C129.822 46.554 129.809 46.242 129.783 45.891Z"
    fill="#0C2A31"
  />
<path
    d="M137.615 44.097H136.068L134.183 49.934L132.285 44.097H130.686L133.468 51.325L133.364 51.572C133.052 52.378 132.61 52.651 131.96 52.651C131.817 52.651 131.674 52.651 131.505 52.638V53.691C131.713 53.73 131.895 53.73 132.181 53.73C133.429 53.73 134.17 53.08 134.807 51.442L137.615 44.097Z"
    fill="#0C2A31"
  />
</svg>
